PathFileType	4	(X/Y/Z)	D:\Share\Shared_Data\Ergonomics\Sit To Stand Pertubation\S1\Perturbed_NoHarness.trc
DataRate	CameraRate	NumFrames	NumMarkers	Units	OrigDataRate	OrigDataStartFrame	OrigNumFrames	
100	100	17	18	m	100	2526	171
Frame#	Time	L_ASIS			R_ASIS			R_Pelvis			V_Sacral			L_Pelvis			Clavical			R_Acromium			L_Acromium			Sternum			Torso			R_Thigh_Med			R_Thigh_Lat			R_Thigh			R_Shank_Med			R_Shank_Lat			R_Shank			R_Heel			R_Toe			
		X1	Y1	Z1	X2	Y2	Z2	X3	Y3	Z3	X4	Y4	Z4	X5	Y5	Z5	X6	Y6	Z6	X7	Y7	Z7	X8	Y8	Z8	X9	Y9	Z9	X10	Y10	Z10	X11	Y11	Z11	X12	Y12	Z12	X13	Y13	Z13	X14	Y14	Z14	X15	Y15	Z15	X16	Y16	Z16	X17	Y17	Z17	X18	Y18	Z18	

2526	25.25	0.25540771	0.71710602	-0.094617287	0.14920653	0.74300037	0.13933673	0.22766229	0.71453424	0.10493154	0.039200455	0.71868451	-0.0016153183	0.16448576	0.73672266	-0.14348297	0.40680118	1.0067164	-0.0038236105	0.37786102	1.1058007	0.14066489	0.32035626	1.0792079	-0.20295428	0.39325092	1.0301589	0.094890915	0.40230893	1.0174777	-0.058623699	0.41298975	0.39315561	0.00816502	0.42889474	0.41801389	0.12756142	0.35002185	0.57661584	0.087357483	0.33914734	0.08789724	0.086784752	0.31980762	0.10018233	0.16705016	0.38603146	0.30014633	0.15824498	0.26176468	0.033744198	0.12145448	0.46802164	0.05155637	0.14550755
2527	25.26	0.25938947	0.72316107	-0.094955353	0.15273808	0.74806433	0.13882057	0.23128812	0.72057996	0.10450557	0.043437878	0.72410193	-0.0027897222	0.16859988	0.74203369	-0.14439661	0.40633298	1.0157612	-0.0039453883	0.37590668	1.1141757	0.14074164	0.31892938	1.0867382	-0.2034437	0.39268768	1.0388409	0.094934479	0.4019245	1.0263401	-0.058869511	0.41320239	0.39321588	0.0080448017	0.42952438	0.41815866	0.12734613	0.35289899	0.57785358	0.0871269	0.33910574	0.087898727	0.086754723	0.31979596	0.10018884	0.16701555	0.38612384	0.30010095	0.15821115	0.26174118	0.033728939	0.12144561	0.46790195	0.0512812	0.14518985
2528	25.27	0.26338626	0.72928656	-0.09531282	0.1562793	0.75314459	0.13821812	0.23494667	0.72666846	0.10404085	0.047711216	0.7296131	-0.0039940608	0.17273785	0.74740808	-0.14532402	0.40579163	1.024803	-0.0040587106	0.37386697	1.1225342	0.14080067	0.31741608	1.0942859	-0.20394524	0.39203009	1.0475311	0.094996246	0.40145599	1.0352067	-0.059116821	0.41329172	0.39333646	0.007996871	0.43001352	0.41835156	0.12721175	0.35573083	0.57916541	0.086906509	0.33904941	0.087918564	0.086749336	0.31975681	0.10019411	0.16700601	0.38611075	0.30008786	0.15823917	0.26171194	0.033709095	0.12144258	0.46775952	0.050996082	0.14483064
2529	25.28	0.26739185	0.73547437	-0.095687103	0.15983379	0.75823456	0.13753467	0.2386442	0.73279156	0.10353619	0.052017258	0.73521802	-0.0052123699	0.17689357	0.7528418	-0.14625887	0.40518253	1.0338267	-0.0041663575	0.37175644	1.1308596	0.14083662	0.31583521	1.1018413	-0.20444766	0.39128564	1.0562124	0.095072166	0.4009086	1.0440596	-0.059367981	0.41325443	0.39351541	0.0080150566	0.43036212	0.41859152	0.12715141	0.35852725	0.58056006	0.086691002	0.33897617	0.087956772	0.086766617	0.31969022	0.10019904	0.16701996	0.38599332	0.30010699	0.15832422	0.26167661	0.033684322	0.12144516	0.46760223	0.050727024	0.1444585
2530	25.29	0.27139893	0.74171582	-0.096076591	0.16340511	0.76333002	0.13677933	0.24238669	0.73894049	0.10299035	0.056351692	0.74091162	-0.0064297976	0.18106036	0.75833014	-0.14719273	0.40451022	1.0428179	-0.0042711639	0.36958984	1.1391372	0.14084544	0.31420923	1.1093911	-0.20493584	0.39046271	1.0648676	0.095157722	0.40028815	1.052881	-0.059625278	0.41308725	0.39375049	0.0080939884	0.43057071	0.41887741	0.12715871	0.3612962	0.58204266	0.086476997	0.33888419	0.088013374	0.086804588	0.31959644	0.10020452	0.16705577	0.3857728	0.30015808	0.15846178	0.2616348	0.033654301	0.121453	0.46743805	0.050502789	0.14410329
2531	25.3	0.27539951	0.7480014	-0.096480553	0.16699658	0.76842902	0.13596483	0.24617909	0.74510608	0.10240257	0.060709381	0.74668372	-0.0076334572	0.18523111	0.7638678	-0.14811545	0.40377911	1.0517611	-0.0043758554	0.36738184	1.1473529	0.14082489	0.31256293	1.1169174	-0.20539174	0.38956985	1.0734791	0.095248055	0.39960159	1.0616542	-0.059890755	0.41278729	0.39403885	0.0082292976	0.43064014	0.41920764	0.12722783	0.3640433	0.58361359	0.086262947	0.33877155	0.088088425	0.086861336	0.31947565	0.10021132	0.16711185	0.38545084	0.30024057	0.1586478	0.26158633	0.033618786	0.12146572	0.46727426	0.050351906	0.14379311
2532	25.31	0.27938501	0.75432019	-0.096899025	0.17061151	0.77353125	0.13510696	0.25002444	0.75127905	0.10177359	0.065084671	0.75251837	-0.0088129368	0.18939861	0.76944806	-0.14901541	0.40299329	1.060641	-0.0044829054	0.36514679	1.1554938	0.14077463	0.31092282	1.1243994	-0.20579614	0.38861606	1.0820304	0.095338196	0.39885678	1.0703624	-0.060166012	0.41235208	0.39437732	0.0084177809	0.43057178	0.41958032	0.12735364	0.36677139	0.58526892	0.086048988	0.33863672	0.088182014	0.086934982	0.31932812	0.10022012	0.16718665	0.38502948	0.3003537	0.15887852	0.26153107	0.033577583	0.12148293	0.46711649	0.050299564	0.14355095
2533	25.32	0.28334662	0.76066077	-0.09733268	0.17425293	0.77863721	0.13422362	0.25392261	0.75744995	0.10110666	0.06947171	0.75839417	-0.0099603958	0.19355573	0.77506317	-0.14988048	0.40215707	1.0694412	-0.0045944295	0.36289828	1.1635469	0.14069626	0.30931509	1.1318147	-0.20613078	0.38761017	1.090505	0.095423218	0.39806262	1.0789897	-0.060452068	0.41177942	0.39476205	0.0086574841	0.43036752	0.41999332	0.12753172	0.3694808	0.58700055	0.085836548	0.33847812	0.088294273	0.087023773	0.3191543	0.10023145	0.16727882	0.38451111	0.30049655	0.1591508	0.26146896	0.033530621	0.12150432	0.46696808	0.050364582	0.14339194
2534	25.33	0.28727612	0.76701001	-0.097782654	0.17792354	0.78374792	0.13333362	0.25786908	0.76360986	0.10040897	0.073864716	0.76428589	-0.011070265	0.19769576	0.78070422	-0.15069907	0.40127518	1.0781459	-0.0047121181	0.36064926	1.1715009	0.14059294	0.30776401	1.1391404	-0.20638092	0.38656091	1.0988871	0.095498428	0.39722845	1.0875211	-0.06074931	0.41106763	0.39518896	0.0089477291	0.43002975	0.4204444	0.12775835	0.37216904	0.58879669	0.085627937	0.33829434	0.088425346	0.08712603	0.31895444	0.10024572	0.1673871	0.38389841	0.30066791	0.15946191	0.26140021	0.033477886	0.1215297	0.46682959	0.050557171	0.14332143
2535	25.34	0.29116592	0.77335468	-0.098250389	0.18162566	0.78886334	0.13245546	0.26185312	0.76975134	0.099692917	0.078258209	0.77016547	-0.012138636	0.20181232	0.78636078	-0.15146153	0.40035312	1.0867385	-0.0048372178	0.35841129	1.1793438	0.14046893	0.30629053	1.1463553	-0.20653737	0.38547696	1.107161	0.095559547	0.39636435	1.0959417	-0.061057438	0.41021509	0.39565341	0.0092890158	0.42956097	0.42093112	0.12803035	0.37483096	0.59064252	0.085425919	0.33808435	0.088575386	0.087240295	0.31872916	0.10026324	0.16751036	0.38319427	0.30086664	0.15980965	0.26132495	0.033419518	0.12155899	0.46669852	0.050877544	0.14333405
2536	25.35	0.29500986	0.77968011	-0.098737297	0.18536075	0.79398248	0.13160616	0.26585663	0.77586865	0.098977486	0.082647163	0.77600452	-0.01316252	0.20589949	0.79202155	-0.15216164	0.39939716	1.0952036	-0.0049705372	0.3561947	1.187064	0.14032898	0.3049108	1.1534421	-0.20659822	0.38436655	1.1153124	0.095602859	0.39548065	1.1042382	-0.061375546	0.40922037	0.39615082	0.0096828299	0.42896396	0.42145123	0.12834506	0.37745883	0.59252124	0.085233345	0.33784711	0.088744553	0.087365265	0.31847903	0.10028414	0.16764777	0.38240182	0.30109131	0.16019218	0.26124359	0.03335574	0.12159229	0.46656979	0.051315838	0.14341449
2537	25.36	0.29880344	0.78597192	-0.099244621	0.1891293	0.79910242	0.13080055	0.26985248	0.78195825	0.098289124	0.087027168	0.78177631	-0.014139105	0.20995192	0.79767371	-0.15279787	0.39841449	1.103526	-0.0051124992	0.35400858	1.19465	0.14017772	0.30363538	1.1603873	-0.20656941	0.38323785	1.1233265	0.095625389	0.39458765	1.1123978	-0.061702248	0.40808209	0.39667642	0.010131315	0.42824149	0.4220025	0.12870027	0.380043	0.5944151	0.085052773	0.33758206	0.088932945	0.087499931	0.31820474	0.10030848	0.16779868	0.38152414	0.30134058	0.16060818	0.26115656	0.033286922	0.12162983	0.46643619	0.051853073	0.14353914
2538	25.37	0.30254428	0.79221521	-0.099773109	0.19293045	0.80421851	0.13005067	0.27380392	0.78801959	0.097662315	0.091394424	0.78745746	-0.015065221	0.21396477	0.80330341	-0.15337415	0.39741309	1.1116917	-0.0052632046	0.35186044	1.2020905	0.14001924	0.30246896	1.1671815	-0.20646445	0.38209897	1.1311909	0.095624863	0.39369519	1.1204087	-0.062035805	0.40679901	0.39722565	0.010636853	0.42739624	0.42258289	0.12909418	0.3825719	0.59630585	0.084886353	0.33728888	0.089140587	0.08764357	0.31790735	0.10033618	0.16796271	0.38056448	0.30161307	0.16105663	0.26106445	0.033213585	0.12167195	0.46628958	0.052463161	0.14367918
2539	25.38	0.30623203	0.79839557	-0.10032273	0.1967614	0.80932446	0.12936584	0.27766422	0.79405475	0.097139145	0.095745796	0.79302972	-0.015937137	0.21793365	0.8088963	-0.15390033	0.39640176	1.1196871	-0.0054225116	0.34975638	1.2093732	0.13985678	0.30141055	1.1738199	-0.20630267	0.38095792	1.1388926	0.09559993	0.39281274	1.1282596	-0.062374355	0.40536987	0.39779446	0.011201531	0.42643051	0.4231908	0.1295253	0.38503293	0.5981759	0.084735703	0.33696796	0.089367325	0.087795853	0.31758807	0.10036711	0.16813972	0.37952576	0.30190726	0.16153682	0.2609679	0.033136433	0.12171909	0.46612183	0.053115551	0.14380415
2540	25.39	0.30986856	0.80449872	-0.10089244	0.20061719	0.81441266	0.12875281	0.28137796	0.80006812	0.096768044	0.1000788	0.79847992	-0.016750711	0.22185484	0.81443719	-0.15439146	0.39538977	1.1275002	-0.005590117	0.34770151	1.216486	0.1396926	0.30045453	1.1803005	-0.20610728	0.3798226	1.1464199	0.095549995	0.39194907	1.1359404	-0.062716053	0.4037937	0.39837939	0.011826584	0.42534637	0.42382486	0.12999248	0.38741266	0.60000854	0.084602051	0.33662003	0.089612816	0.08795681	0.31724857	0.10040109	0.16832991	0.37841086	0.30222189	0.16204843	0.26086768	0.033056351	0.12177171	0.46592621	0.053778027	0.1438855
2541	25.4	0.31345746	0.81051154	-0.10147991	0.20449039	0.81947528	0.12821635	0.284883	0.80606592	0.096601204	0.1043916	0.80380103	-0.01750193	0.22572537	0.81991101	-0.15486687	0.39438663	1.1351206	-0.0057656345	0.34569995	1.2234174	0.13952794	0.29959137	1.1866234	-0.20590262	0.37870114	1.1537621	0.095475327	0.39111169	1.1434412	-0.06305925	0.40207004	0.398978	0.012511819	0.42414532	0.4244841	0.13049495	0.38969785	0.60178912	0.084486427	0.33624686	0.089876534	0.088126923	0.31689078	0.10043787	0.16853368	0.37722238	0.30255563	0.16259138	0.26076471	0.032974476	0.12183026	0.46569836	0.054419445	0.14390013
2542	25.41	0.31700366	0.81642145	-0.10208144	0.20837079	0.82450464	0.12775986	0.28811426	0.81205402	0.096690704	0.10868288	0.80899091	-0.018187641	0.229543	0.82530255	-0.15534811	0.39340176	1.1425387	-0.005948657	0.34375516	1.2301554	0.13936328	0.29880923	1.1927882	-0.20571155	0.37760168	1.1609094	0.095376862	0.3903074	1.1507529	-0.063402622	0.40019946	0.39958878	0.013255132	0.4228284	0.42516772	0.13103249	0.39187585	0.60350452	0.084389908	0.33585074	0.090157646	0.088307114	0.31651715	0.10047717	0.16875174	0.37596271	0.30290707	0.16316591	0.26065997	0.032892136	0.12189501	0.46543707	0.055011959	0.14383269
